PathFileType	4	(X/Y/Z)	pose_F01_0-96.trc
DataRate	CameraRate	NumFrames	NumMarkers	Units	OrigDataRate	OrigDataStartFrame	OrigNumFrames
30	30	8	21	m	30	72	96
Frame#	Time	CHip			RHip			RKnee			RAnkle			RBigToe			RSmallToe			RHeel			LHip			LKnee			LAnkle			LBigToe			LSmallToe			LHeel			Neck			Nose			RShoulder			RElbow			RWrist			LShoulder			LElbow			LWrist			
		X1	Y1	Z1	X2	Y2	Z2	X3	Y3	Z3	X4	Y4	Z4	X5	Y5	Z5	X6	Y6	Z6	X7	Y7	Z7	X8	Y8	Z8	X9	Y9	Z9	X10	Y10	Z10	X11	Y11	Z11	X12	Y12	Z12	X13	Y13	Z13	X14	Y14	Z14	X15	Y15	Z15	X16	Y16	Z16	X17	Y17	Z17	X18	Y18	Z18	X19	Y19	Z19	X20	Y20	Z20	X21	Y21	Z21	
72	2.4	-0.2339511604552095	1.8640908155538134	-0.4725404353058997	-0.24759483150154651	1.8602897904650866	-0.4208864071303165	-0.2622880435286414	1.7243267560424576	-0.44028889248611786													-0.2164775010768297	1.8675874843079594	-0.5314716395849852	-0.21073244381625314	1.7271595982075663	-0.5616439851018203	-0.1966276906713867	1.610534284165098	-0.48930508984390936	-0.194943719150772	1.585294369200184	-0.5724776515743814	-0.18667211218770638	1.5945971838220139	-0.5736997968374751	-0.20690310976479037	1.6129268213680186	-0.4702197062547208	-0.2296756027122145	2.029525133628341	-0.47898645600105905	-0.23558602254787478	2.0968663727157235	-0.5148206507141977	-0.248703744266818	2.0279833877575846	-0.40589818035531666	-0.29859398245581437	2.0454004064587057	-0.4032037814700989	-0.32308408282684936	2.1189821280501033	-0.47797399957830883	-0.20678231000121172	2.0299147306557908	-0.5623092022231028	-0.1791792911173185	2.002699466198087	-0.7026931726923648	-0.186523889705529	2.0715779388107127	-0.7236900063346604
73	2.433333333333333	-0.22859047992657003	1.8605802337165591	-0.47870965088274836	-0.24327661629654942	1.8553349637537262	-0.42133825157899063	-0.2617980338613994	1.7210827381510634	-0.4509458307484148													-0.21219044212834842	1.8636969057292359	-0.5325047169300887	-0.2103767127262977	1.724982628513822	-0.5791107968845469	-0.19788807511729692	1.6120863969575692	-0.4927064682221442	-0.19142178398615667	1.5862387296229206	-0.5720528563085281	-0.1852018367634797	1.5948701144134838	-0.5711438141432021	-0.20788464875755525	1.6132398965371622	-0.4732849465919437	-0.22494819732763793	2.024379737281772	-0.47930139008940337	-0.23358187327976168	2.0919667677853844	-0.5239075654040363	-0.2459826480444809	2.023001811086405	-0.40444489434364345	-0.2956705305332154	2.037659022961347	-0.41559508912318494	-0.309068441404616	2.112575749729705	-0.4672435864207445	-0.2027549074264113	2.0250448473730294	-0.5659816750421587	-0.1813271002895411	2.000890891316398	-0.7000780099461799	-0.18640820886321832	2.069875809864896	-0.7123258981982269
74	2.466666666666667	-0.2267727285117379	1.864646753111024	-0.48159789466462144	-0.2442182693320369	1.8617127465792307	-0.42557094508631343	-0.2613080241941574	1.7178387202596694	-0.46160276901071184													-0.21300184610185843	1.8690509738438712	-0.5364681516063443	-0.20961662422641797	1.727343161191259	-0.5757066039972368	-0.1966875531728858	1.6135412511358151	-0.4895356582916158	-0.19380759251488455	1.5848244117975578	-0.5692331516763793	-0.18557967128381886	1.5940871103666843	-0.5705905175577415	-0.20655440734555316	1.6115116019068505	-0.46108089048716777	-0.22297979383733885	2.0256079651309666	-0.48192602457511563	-0.22799459322947072	2.0937013792486927	-0.523768149757902	-0.24401757208040373	2.02306371282518	-0.4066874481276812	-0.2938092909496294	2.0436804430788116	-0.4271387936955618	-0.30694289896359583	2.1112852093781243	-0.4684987549029905	-0.19991096664880734	2.027478951497392	-0.5661221928768804	-0.17889373197273425	2.0010913693531696	-0.6912950430436682	-0.18660778915020151	2.0703377852327804	-0.6930422341817337
75	2.5	-0.22549854945151454	1.8689635742220068	-0.48748973564194176	-0.24030032056853948	1.866474255179223	-0.4310274054114876	-0.25778595959112516	1.7240281407359412	-0.4524991345204382													-0.2107537327026842	1.8733270137894906	-0.5392199967451249	-0.20432535352095885	1.733416526144977	-0.5690123319700758	-0.19679482248888264	1.6116076237508703	-0.4891204137400649	-0.19155801361155964	1.5868931835915627	-0.5719896348731092	-0.183875687992954	1.5962794308293105	-0.5725008003633498	-0.2062449940253599	1.6095293804694064	-0.46982588189948166	-0.2190078233099577	2.0295865103331816	-0.4874027437778638	-0.22366107062614576	2.0995757741281764	-0.528218894688281	-0.23909639413624828	2.029636732255009	-0.4173611080895515	-0.2934983141635265	2.049664134605708	-0.42820586165273494	-0.3017837608195559	2.118826161030445	-0.4709883859729245	-0.1999386571043246	2.031040592383455	-0.567040708208705	-0.17401471775903452	2.0129078913002094	-0.6966118775990744	-0.1848443082594971	2.0732049697033315	-0.6872886498981673
76	2.533333333333333	-0.22315310502622462	1.8786175904562044	-0.49106385202312597	-0.23604713504654248	1.876415746511396	-0.4368481715864895	-0.25680913816266965	1.7236222166085255	-0.45617337140106934													-0.2084867058386735	1.8814480172317176	-0.5426678156676702	-0.203046781191534	1.742689204076724	-0.5672087947181882	-0.19639287338868386	1.6146865573992735	-0.49024758249729605	-0.18532930296222674	1.5910388003325449	-0.5787031523748466	-0.1815786734445565	1.601580922237572	-0.5751061660926867	-0.20495166270870918	1.6107306084986104	-0.4670874584841096	-0.21771085222003422	2.0349051635390363	-0.5015190216565956	-0.2253297661844991	2.1019721262321007	-0.5425323205468373	-0.237928429521158	2.0333713755314857	-0.4225361100899901	-0.2820126363070341	2.0482392354865286	-0.4167849997728016	-0.2924679235202063	2.125879780310843	-0.4612259011316469	-0.19643467615895435	2.03595312687952	-0.5748601011896542	-0.17288320297826337	2.019479518400703	-0.7144814973897733	-0.1845224993025003	2.08263324011954	-0.6884730321020983
77	2.566666666666667	-0.22085201766425436	1.874190950317608	-0.4929633007774957	-0.2347110229927713	1.871859181848683	-0.44148377614493906	-0.25583231673421414	1.7232162924811099	-0.4598476082817004													-0.20670119532698084	1.8767341445115553	-0.5561622957959155	-0.19836968623664347	1.7403353032251894	-0.5763019773116892	-0.1966589693140466	1.613969433849474	-0.48993348431371647	-0.18325899468315912	1.5928159727590006	-0.5900143527758752	-0.18058827073093017	1.6033610277835453	-0.5808679668172095	-0.20500462494647181	1.608513270251715	-0.4666307217387916	-0.21353547436179723	2.0349735581047756	-0.5054256104079166	-0.22239297564211705	2.100358751702188	-0.5411388482665354	-0.23398496547674144	2.0334703306052537	-0.4267495764457819	-0.28053544670631175	2.0587227254998757	-0.439179778549168	-0.28542703683029824	2.1292127116490427	-0.4649888152059669	-0.19211909457361834	2.0375607085277285	-0.5794921469812361	-0.16909259499249615	2.022908121688003	-0.722475926964785	-0.180028752177687	2.086326407447543	-0.693099750230853
78	2.6	-0.2202141171634129	1.870300184856245	-0.4979511424960786	-0.233137487215542	1.8670163164087838	-0.4430818883790085	-0.2548554953057586	1.7228103683536944	-0.4635218451623315													-0.20404001403027466	1.8731647599929921	-0.5634431940928454	-0.19525860767651723	1.743068131994247	-0.5969820066384064	-0.19556350684897905	1.613861277709353	-0.4952922270062579	-0.18419859063721913	1.590021834139288	-0.5930458858551785	-0.181911920478416	1.6027109915188418	-0.5836146956366736	-0.20433483850893014	1.6106337384323057	-0.47212259177318283	-0.21357030223664264	2.0316934792050683	-0.5135480750555068	-0.21642887367972297	2.099150458577701	-0.5478045124160641	-0.23212463808557218	2.0310365226894036	-0.42860032301731216	-0.27953074640035586	2.058913680452902	-0.4437641384121894	-0.28040698818082255	2.1324297153036906	-0.46732216280759237	-0.19196423058783207	2.032267675494361	-0.5871908098070621	-0.16678001549390817	2.023424362228782	-0.7247974615973781	-0.1770968025121407	2.0858014955585036	-0.6919379061785852
79	2.6333333333333333	-0.21316913642392463	1.868749479732653	-0.5098603894783419	-0.22750988335796055	1.8651014573996643	-0.4495867850120593	-0.25387867387730306	1.7224044442262787	-0.4671960820429626													-0.20381539125972326	1.8717625660458999	-0.5722021789142159	-0.19153475361100789	1.7378060171207332	-0.6090150055986411	-0.19574498335904525	1.614453825365556	-0.49533412453741854	-0.18320746651482867	1.59013604869261	-0.5897126373045415	-0.1787403413315016	1.6020306156961803	-0.5824121409377214	-0.20630357768236793	1.6100379776322982	-0.4700388628956684	-0.20763846272687864	2.0256799328811694	-0.5104932790360589	-0.21366482420188102	2.094316789927998	-0.5558619645486804	-0.2236436543742938	2.0250743127978055	-0.4332880668111765	-0.2685044291679776	2.047820620053269	-0.4312114989469445	-0.2754858408279199	2.1177377159469897	-0.4627427925922018	-0.18689822611854534	2.0273062626489597	-0.5873423441667135	-0.16246265787053457	2.022272351909444	-0.7295606035173108	-0.1727018880787705	2.0847872361657918	-0.6965927896751553
